<svg xmlns="http://www.w3.org/2000/svg" xmlns:xlink="http://www.w3.org/1999/xlink" viewBox="0 0 48 48" width="48px" height="48px"><defs><linearGradient id="O9nQ7kWwxZXfPD8rxIQwbd" x1="21.977" x2="25.884" y1="493.589" y2="493.589" data-name="Безымянный градиент 87" gradientTransform="matrix(1 0 0 -1 0 526)" gradientUnits="userSpaceOnUse"><stop offset="0" stop-color="#634614"/><stop offset=".202" stop-color="#845d1b"/><stop offset=".381" stop-color="#9b6d1f"/><stop offset=".494" stop-color="#a37321"/><stop offset=".645" stop-color="#94691e"/><stop offset=".932" stop-color="#6d4d16"/><stop offset="1" stop-color="#634614"/></linearGradient><linearGradient id="O9nQ7kWwxZXfPD8rxIQwbe" x1="23.937" x2="23.937" y1="488.366" y2="484.051" data-name="Безымянный градиент 84" gradientTransform="matrix(1 0 0 -1 0 526)" gradientUnits="userSpaceOnUse"><stop offset="0" stop-color="#38280b"/><stop offset="1" stop-color="#38280b" stop-opacity="0"/></linearGradient><radialGradient id="O9nQ7kWwxZXfPD8rxIQwbf" cx="-508.083" cy="1449.264" r="12.683" data-name="Безымянный градиент 82" gradientTransform="matrix(.014 1.078 1.398 -.015 -1994.823 594.055)" gradientUnits="userSpaceOnUse"><stop offset=".279" stop-color="#253808"/><stop offset=".581" stop-color="#57801a"/><stop offset=".852" stop-color="#70a622"/><stop offset="1" stop-color="#7ab525"/></radialGradient><radialGradient id="O9nQ7kWwxZXfPD8rxIQwbg" cx="-524.369" cy="228.777" r="10.278" data-name="Безымянный градиент 79" gradientTransform="matrix(-.014 1.078 -1.398 -.015 336.637 590.551)" gradientUnits="userSpaceOnUse"><stop offset=".206" stop-color="#283b0c"/><stop offset=".502" stop-color="#57801a"/><stop offset=".825" stop-color="#70a622"/><stop offset="1" stop-color="#7ab525"/></radialGradient><radialGradient id="O9nQ7kWwxZXfPD8rxIQwba" cx="-40.174" cy="533.628" r="8.488" data-name="Безымянный градиент 77" gradientTransform="matrix(1.081 0 0 -1.078 67.372 591.922)" gradientUnits="userSpaceOnUse"><stop offset=".171" stop-color="#30470f"/><stop offset=".47" stop-color="#57801a"/><stop offset=".814" stop-color="#70a622"/><stop offset="1" stop-color="#7ab525"/></radialGradient><radialGradient id="O9nQ7kWwxZXfPD8rxIQwbh" cx="-1685.227" cy="513.019" r="7.109" gradientTransform="rotate(180 -830.734 263)" xlink:href="#O9nQ7kWwxZXfPD8rxIQwba"/><linearGradient id="O9nQ7kWwxZXfPD8rxIQwbi" x1="23.937" x2="23.937" y1="518.949" y2="510.472" data-name="Безымянный градиент 76" gradientTransform="matrix(1 0 0 -1 0 526)" gradientUnits="userSpaceOnUse"><stop offset="0" stop-color="#59841b"/><stop offset="1" stop-color="#7ab525"/></linearGradient><linearGradient id="O9nQ7kWwxZXfPD8rxIQwbb" x1="19.057" x2="26.52" y1="12.722" y2="12.722" data-name="Безымянный градиент 176" gradientUnits="userSpaceOnUse"><stop offset="0" stop-color="#29abe2"/><stop offset=".492" stop-color="#0ff"/><stop offset="1" stop-color="#29abe2"/></linearGradient><linearGradient id="O9nQ7kWwxZXfPD8rxIQwbj" x1="16.617" x2="29.161" y1="20.249" y2="20.249" data-name="Безымянный градиент 174" xlink:href="#O9nQ7kWwxZXfPD8rxIQwbb"/><linearGradient id="O9nQ7kWwxZXfPD8rxIQwbk" x1="13.523" x2="31.68" y1="28.686" y2="28.686" data-name="Безымянный градиент 174" xlink:href="#O9nQ7kWwxZXfPD8rxIQwbb"/><radialGradient id="O9nQ7kWwxZXfPD8rxIQwbc" cx="17.869" cy="32.472" r="1.136" data-name="Безымянный градиент 198" gradientUnits="userSpaceOnUse"><stop offset=".099" stop-color="#fff"/><stop offset="1" stop-color="#ed1c24"/></radialGradient><radialGradient id="O9nQ7kWwxZXfPD8rxIQwbl" cx="22.555" cy="31.275" r="1.136" xlink:href="#O9nQ7kWwxZXfPD8rxIQwbc"/><radialGradient id="O9nQ7kWwxZXfPD8rxIQwbm" cx="16.62" cy="24.312" r="1.136" gradientTransform="matrix(1 .031 -.031 1 .682 -.716)" xlink:href="#O9nQ7kWwxZXfPD8rxIQwbc"/><radialGradient id="O9nQ7kWwxZXfPD8rxIQwbn" cx="20.641" cy="23.264" r="1.136" gradientTransform="matrix(1 .031 -.031 1 .682 -.716)" xlink:href="#O9nQ7kWwxZXfPD8rxIQwbc"/><radialGradient id="O9nQ7kWwxZXfPD8rxIQwbo" cx="24.357" cy="21.652" r="1.136" gradientTransform="matrix(1 .031 -.031 1 .682 -.716)" xlink:href="#O9nQ7kWwxZXfPD8rxIQwbc"/><radialGradient id="O9nQ7kWwxZXfPD8rxIQwbp" cx="27.27" cy="19.435" r="1.136" gradientTransform="matrix(1 .031 -.031 1 .682 -.716)" xlink:href="#O9nQ7kWwxZXfPD8rxIQwbc"/><radialGradient id="O9nQ7kWwxZXfPD8rxIQwbq" cx="29.492" cy="16.996" r="1.136" gradientTransform="matrix(1 .031 -.031 1 .682 -.716)" xlink:href="#O9nQ7kWwxZXfPD8rxIQwbc"/><linearGradient id="O9nQ7kWwxZXfPD8rxIQwbr" x1="21.224" x2="33.768" y1="34.072" y2="34.072" data-name="Безымянный градиент 174" gradientTransform="rotate(4.24 24.5 35.206)" xlink:href="#O9nQ7kWwxZXfPD8rxIQwbb"/><radialGradient id="O9nQ7kWwxZXfPD8rxIQwbs" cx="21.428" cy="38.096" r="1.136" gradientTransform="rotate(4.24 24.5 35.206)" xlink:href="#O9nQ7kWwxZXfPD8rxIQwbc"/><radialGradient id="O9nQ7kWwxZXfPD8rxIQwbt" cx="25.448" cy="37.047" r="1.136" gradientTransform="rotate(4.24 24.5 35.206)" xlink:href="#O9nQ7kWwxZXfPD8rxIQwbc"/><radialGradient id="O9nQ7kWwxZXfPD8rxIQwbu" cx="29.164" cy="35.435" r="1.136" gradientTransform="rotate(4.24 24.5 35.206)" xlink:href="#O9nQ7kWwxZXfPD8rxIQwbc"/><radialGradient id="O9nQ7kWwxZXfPD8rxIQwbv" cx="32.077" cy="33.219" r="1.136" gradientTransform="rotate(4.24 24.5 35.206)" xlink:href="#O9nQ7kWwxZXfPD8rxIQwbc"/><radialGradient id="O9nQ7kWwxZXfPD8rxIQwbw" cx="34.3" cy="30.779" r="1.136" gradientTransform="rotate(4.24 24.5 35.206)" xlink:href="#O9nQ7kWwxZXfPD8rxIQwbc"/><radialGradient id="O9nQ7kWwxZXfPD8rxIQwbx" cx="19.261" cy="15.134" r="1.136" xlink:href="#O9nQ7kWwxZXfPD8rxIQwbc"/><radialGradient id="O9nQ7kWwxZXfPD8rxIQwby" cx="23.295" cy="14.135" r="1.136" xlink:href="#O9nQ7kWwxZXfPD8rxIQwbc"/><radialGradient id="O9nQ7kWwxZXfPD8rxIQwbz" cx="26.655" cy="11.491" r="1.136" xlink:href="#O9nQ7kWwxZXfPD8rxIQwbc"/><radialGradient id="O9nQ7kWwxZXfPD8rxIQwbA" cx="27.161" cy="29.276" r="1.136" xlink:href="#O9nQ7kWwxZXfPD8rxIQwbc"/><radialGradient id="O9nQ7kWwxZXfPD8rxIQwbB" cx="30.549" cy="26.705" r="1.136" xlink:href="#O9nQ7kWwxZXfPD8rxIQwbc"/><radialGradient id="O9nQ7kWwxZXfPD8rxIQwbC" cx="13.535" cy="32.909" r="1.136" xlink:href="#O9nQ7kWwxZXfPD8rxIQwbc"/></defs><path fill="url(#O9nQ7kWwxZXfPD8rxIQwbd)" d="M24.937,19.411h-2c0,25.936-1,23.667-1,26h4C25.937,43.153,24.937,45.225,24.937,19.411Z"/><path fill="url(#O9nQ7kWwxZXfPD8rxIQwbe)" d="M24.937,19.411h-2c0,25.936-1,23.667-1,26h4C25.937,43.153,24.937,45.225,24.937,19.411Z"/><path fill="url(#O9nQ7kWwxZXfPD8rxIQwbf)" d="M37.277,33.358c.018-.372-1.723-.369-3.374-1.342-1.066-.628,2.548-1.338-1.2-2.319-2.975-.778-7.016-5.22-7.2-6.578H22.259c-.181,1.358-4.1,5.859-9.513,8.071-1.264.517,2.249,1.149,1.183,1.777-1.651.973-2.818.979-2.8,1.351.024.5.907.533,1.3.96s-1.013,1.5-.566,1.924,1.908-.824,2.341-.431c.359.326.243,1.323.791,1.588.429.208,2.049-1.339,2.729-1.3s.482,1.86,1.744,1.863,1.285-1.665,1.944-1.63c.68.037.819,2,2.278,2s1.474-1.134,2.154-1.171c.659-.035.806.8,2.068.8s.474-1.873,1.155-1.91,2.652,1.568,3.082,1.36c.548-.266-.266-1.968.093-2.294.433-.393,2.828,1.547,3.275,1.126s-.437-1.917.1-2.138A2.547,2.547,0,0,0,37.277,33.358Z"/><path fill="url(#O9nQ7kWwxZXfPD8rxIQwbg)" d="M13.582,27.808c-.015-.306,1.159-.2,2.517-1,.877-.517-2.615-1.1.256-2.16,2.579-.954,5.393-4.324,5.542-5.441h3.372c.149,1.117,3.374,4.817,7.821,6.636,1.039.425-1.849.945-.973,1.461,1.357.8,2.317.8,2.3,1.111-.02.41-.746.438-1.07.789s.833,1.236.465,1.582-2.476-1.074-2.832-.751c-.295.268.708,1.483.258,1.7-.353.171-1.439-.549-2-.519s-.642.978-1.679.98-1.36-1.819-1.9-1.789c-.559.03-.37,2.092-1.57,2.092s-1.325-1.408-1.884-1.439c-.542-.029-.55,1.138-1.587,1.136s-.794-1.433-1.354-1.463-1.776,1.182-2.129,1.011c-.45-.218.23-1.677-.065-1.944-.356-.323-2.574,1.793-2.942,1.447s.6-2.039.153-2.22C13.467,28.7,13.6,28.218,13.582,27.808Z"/><path fill="url(#O9nQ7kWwxZXfPD8rxIQwba)" d="M32.186,21.511c.011-.251-1.352-.015-2.36-.672-.651-.424,1.493-1.7-.433-1.8-1.876-.094-4.284-3.526-4.394-4.444H23.016c-.11.918-2.5,3.958-5.809,5.452-.772.349,1.373.776.722,1.2-1.008.657-1.721.661-1.71.912.015.337.554.36.795.648s-.445,1.185-.172,1.469,1-.294,1.263-.029c.219.22.14.461.475.641.262.141,1.069-.451,1.484-.426s.476.8,1.247.8.772-1.353,1.174-1.329.513,1.577,1.4,1.577.9-.766,1.315-.791.492.544,1.263.542.224-1.4.639-1.422,1.685,1.191,1.948,1.051c.334-.179.211-.9.43-1.121.264-.265,1.354.616,1.627.332s-.267-1.3.063-1.444A1.664,1.664,0,0,0,32.186,21.511Z"/><path fill="url(#O9nQ7kWwxZXfPD8rxIQwbh)" d="M17.371,16.741c-.009-.2,1.047-.012,1.828-.522.5-.33-1.157-1.325.336-1.4,1.453-.073,3.319-2.74,3.4-3.452h1.536c.086.713,1.941,3.075,4.5,4.236.6.271-1.064.6-.56.933.781.511,1.333.514,1.325.709-.011.261-.429.28-.616.5s.479.789.268,1.01-.679-.253-.884-.047c-.17.171-.338.515-.6.654-.2.109-.9-.44-1.223-.421s-.3.714-.892.715-.756-1.06-1.068-1.042-.239,1.235-.929,1.235-.756-1.122-1.078-1.142-.322.95-.919.949-.393-1.349-.715-1.369S20,19.481,19.8,19.372c-.259-.139-.163-.7-.333-.871-.2-.206-1.049.479-1.26.258s.207-1.006-.049-1.122A1.3,1.3,0,0,1,17.371,16.741Z"/><path fill="url(#O9nQ7kWwxZXfPD8rxIQwbi)" d="M28.562,13.059c.109-.279-2.133-1.863-2.763-2.534-1.105-1.435-1.334-3.557-1.866-3.557S23.26,9.191,22.1,10.535c-.63.672-2.9,2.246-2.789,2.525s.85.133.974.427-.655.86-.422,1.1c.574.581,1.7-.921,1.9-.679.169.2-.352,1.2-.094,1.359.2.128.813-.519,1.134-.5s.459.979,1.132.979.428-1.865.749-1.887S26,15.391,26.2,15.263c.258-.163.218-.69.387-.89.2-.242,1.209.469,1.42.21s-.594-.8-.47-1.1S28.454,13.338,28.562,13.059Z"/><polygon fill="#f7931e" points="23.937 2.589 25.032 4.808 27.481 5.164 25.709 6.892 26.127 9.331 23.937 8.179 21.746 9.331 22.164 6.892 20.392 5.164 22.841 4.808 23.937 2.589"/><polygon fill="#f7951e" points="23.937 2.63 25.02 4.825 27.443 5.177 25.69 6.886 26.103 9.299 23.937 8.16 21.77 9.299 22.184 6.886 20.431 5.177 22.853 4.825 23.937 2.63"/><polygon fill="#f7961e" points="23.937 2.671 25.008 4.842 27.404 5.19 25.67 6.88 26.08 9.267 23.937 8.14 21.793 9.267 22.203 6.88 20.469 5.19 22.865 4.842 23.937 2.671"/><polygon fill="#f7981e" points="23.937 2.712 24.996 4.859 27.366 5.203 25.651 6.875 26.056 9.235 23.937 8.12 21.817 9.235 22.222 6.875 20.507 5.203 22.877 4.859 23.937 2.712"/><polygon fill="#f7991e" points="23.937 2.753 24.984 4.876 27.327 5.216 25.632 6.869 26.032 9.202 23.937 8.101 21.841 9.202 22.241 6.869 20.546 5.216 22.889 4.876 23.937 2.753"/><polygon fill="#f79b1e" points="23.937 2.794 24.972 4.893 27.289 5.229 25.613 6.863 26.008 9.17 23.937 8.081 21.865 9.17 22.26 6.863 20.584 5.229 22.901 4.893 23.937 2.794"/><polygon fill="#f89c1e" points="23.937 2.835 24.961 4.91 27.251 5.242 25.594 6.858 25.985 9.138 23.937 8.061 21.888 9.138 22.28 6.858 20.623 5.242 22.912 4.91 23.937 2.835"/><polygon fill="#f89e1e" points="23.937 2.876 24.949 4.926 27.212 5.255 25.574 6.852 25.961 9.106 23.937 8.042 21.912 9.106 22.299 6.852 20.661 5.255 22.924 4.926 23.937 2.876"/><polygon fill="#f8a01e" points="23.937 2.916 24.937 4.943 27.174 5.268 25.555 6.846 25.937 9.074 23.937 8.022 21.936 9.074 22.318 6.846 20.699 5.268 22.936 4.943 23.937 2.916"/><polygon fill="#f8a11e" points="23.937 2.957 24.925 4.96 27.135 5.281 25.536 6.84 25.913 9.042 23.937 8.002 21.96 9.042 22.337 6.84 20.738 5.281 22.948 4.96 23.937 2.957"/><polygon fill="#f8a31f" points="23.937 2.998 24.913 4.977 27.097 5.294 25.517 6.835 25.89 9.01 23.937 7.983 21.983 9.01 22.356 6.835 20.776 5.294 22.96 4.977 23.937 2.998"/><polygon fill="#f8a41f" points="23.937 3.039 24.901 4.994 27.059 5.307 25.498 6.829 25.866 8.978 23.937 7.963 22.007 8.978 22.376 6.829 20.815 5.307 22.972 4.994 23.937 3.039"/><polygon fill="#f8a61f" points="23.937 3.08 24.889 5.011 27.02 5.32 25.478 6.823 25.842 8.946 23.937 7.944 22.031 8.946 22.395 6.823 20.853 5.32 22.984 5.011 23.937 3.08"/><polygon fill="#f8a71f" points="23.937 3.121 24.878 5.028 26.982 5.334 25.459 6.818 25.819 8.913 23.937 7.924 22.054 8.913 22.414 6.818 20.891 5.334 22.995 5.028 23.937 3.121"/><polygon fill="#f8a91f" points="23.937 3.162 24.866 5.045 26.943 5.347 25.44 6.812 25.795 8.881 23.937 7.904 22.078 8.881 22.433 6.812 20.93 5.347 23.007 5.045 23.937 3.162"/><polygon fill="#f8ab1f" points="23.937 3.203 24.854 5.062 26.905 5.36 25.421 6.806 25.771 8.849 23.937 7.885 22.102 8.849 22.452 6.806 20.968 5.36 23.019 5.062 23.937 3.203"/><polygon fill="#f8ac1f" points="23.937 3.244 24.842 5.078 26.867 5.373 25.402 6.801 25.747 8.817 23.937 7.865 22.126 8.817 22.472 6.801 21.007 5.373 23.031 5.078 23.937 3.244"/><polygon fill="#f8ae1f" points="23.937 3.285 24.83 5.095 26.828 5.386 25.382 6.795 25.724 8.785 23.937 7.845 22.149 8.785 22.491 6.795 21.045 5.386 23.043 5.095 23.937 3.285"/><polygon fill="#f9af1f" points="23.937 3.326 24.818 5.112 26.79 5.399 25.363 6.789 25.7 8.753 23.937 7.826 22.173 8.753 22.51 6.789 21.083 5.399 23.055 5.112 23.937 3.326"/><polygon fill="#f9b11f" points="23.937 3.367 24.806 5.129 26.751 5.412 25.344 6.784 25.676 8.721 23.937 7.806 22.197 8.721 22.529 6.784 21.122 5.412 23.067 5.129 23.937 3.367"/><polygon fill="#f9b21f" points="23.937 3.408 24.794 5.146 26.713 5.425 25.325 6.778 25.652 8.689 23.937 7.786 22.221 8.689 22.548 6.778 21.16 5.425 23.079 5.146 23.937 3.408"/><polygon fill="#f9b41f" points="23.937 3.448 24.783 5.163 26.675 5.438 25.306 6.772 25.629 8.656 23.937 7.767 22.244 8.656 22.568 6.772 21.199 5.438 23.09 5.163 23.937 3.448"/><polygon fill="#f9b61f" points="23.937 3.489 24.771 5.18 26.636 5.451 25.286 6.766 25.605 8.624 23.937 7.747 22.268 8.624 22.587 6.766 21.237 5.451 23.102 5.18 23.937 3.489"/><polygon fill="#f9b71f" points="23.937 3.53 24.759 5.197 26.598 5.464 25.267 6.761 25.581 8.592 23.937 7.728 22.292 8.592 22.606 6.761 21.275 5.464 23.114 5.197 23.937 3.53"/><polygon fill="#f9b91f" points="23.937 3.571 24.747 5.213 26.559 5.477 25.248 6.755 25.558 8.56 23.937 7.708 22.316 8.56 22.625 6.755 21.314 5.477 23.126 5.213 23.937 3.571"/><polygon fill="#f9ba1f" points="23.937 3.612 24.735 5.23 26.521 5.49 25.229 6.749 25.534 8.528 23.937 7.688 22.339 8.528 22.644 6.749 21.352 5.49 23.138 5.23 23.937 3.612"/><polygon fill="#f9bc1f" points="23.937 3.653 24.723 5.247 26.483 5.503 25.21 6.744 25.51 8.496 23.937 7.669 22.363 8.496 22.664 6.744 21.39 5.503 23.15 5.247 23.937 3.653"/><polygon fill="#f9bd1f" points="23.937 3.694 24.711 5.264 26.444 5.516 25.19 6.738 25.486 8.464 23.937 7.649 22.387 8.464 22.683 6.738 21.429 5.516 23.162 5.264 23.937 3.694"/><polygon fill="#f9bf1f" points="23.937 3.735 24.7 5.281 26.406 5.529 25.171 6.732 25.463 8.432 23.937 7.629 22.41 8.432 22.702 6.732 21.467 5.529 23.173 5.281 23.937 3.735"/><polygon fill="#fac120" points="23.937 3.776 24.688 5.298 26.367 5.542 25.152 6.727 25.439 8.4 23.937 7.61 22.434 8.4 22.721 6.727 21.506 5.542 23.185 5.298 23.937 3.776"/><polygon fill="#fac220" points="23.937 3.817 24.676 5.315 26.329 5.555 25.133 6.721 25.415 8.367 23.937 7.59 22.458 8.367 22.74 6.721 21.544 5.555 23.197 5.315 23.937 3.817"/><polygon fill="#fac420" points="23.937 3.858 24.664 5.332 26.291 5.568 25.114 6.715 25.391 8.335 23.937 7.57 22.482 8.335 22.76 6.715 21.582 5.568 23.209 5.332 23.937 3.858"/><polygon fill="#fac520" points="23.937 3.899 24.652 5.349 26.252 5.581 25.094 6.71 25.368 8.303 23.937 7.551 22.505 8.303 22.779 6.71 21.621 5.581 23.221 5.349 23.937 3.899"/><polygon fill="#fac720" points="23.937 3.94 24.64 5.365 26.214 5.594 25.075 6.704 25.344 8.271 23.937 7.531 22.529 8.271 22.798 6.704 21.659 5.594 23.233 5.365 23.937 3.94"/><polygon fill="#fac820" points="23.937 3.98 24.628 5.382 26.175 5.607 25.056 6.698 25.32 8.239 23.937 7.512 22.553 8.239 22.817 6.698 21.698 5.607 23.245 5.382 23.937 3.98"/><polygon fill="#faca20" points="23.937 4.021 24.616 5.399 26.137 5.62 25.037 6.693 25.296 8.207 23.937 7.492 22.577 8.207 22.836 6.693 21.736 5.62 23.257 5.399 23.937 4.021"/><polygon fill="#facb20" points="23.937 4.062 24.605 5.416 26.099 5.633 25.018 6.687 25.273 8.175 23.937 7.472 22.6 8.175 22.856 6.687 21.774 5.633 23.268 5.416 23.937 4.062"/><polygon fill="#facd20" points="23.937 4.103 24.593 5.433 26.06 5.646 24.998 6.681 25.249 8.143 23.937 7.453 22.624 8.143 22.875 6.681 21.813 5.646 23.28 5.433 23.937 4.103"/><polygon fill="#facf20" points="23.937 4.144 24.581 5.45 26.022 5.659 24.979 6.675 25.225 8.111 23.937 7.433 22.648 8.111 22.894 6.675 21.851 5.659 23.292 5.45 23.937 4.144"/><polygon fill="#fad020" points="23.937 4.185 24.569 5.467 25.983 5.672 24.96 6.67 25.202 8.078 23.937 7.413 22.672 8.078 22.913 6.67 21.89 5.672 23.304 5.467 23.937 4.185"/><polygon fill="#fad220" points="23.937 4.226 24.557 5.484 25.945 5.685 24.941 6.664 25.178 8.046 23.937 7.394 22.695 8.046 22.932 6.664 21.928 5.685 23.316 5.484 23.937 4.226"/><polygon fill="#fbd320" points="23.937 4.267 24.545 5.5 25.907 5.698 24.922 6.658 25.154 8.014 23.937 7.374 22.719 8.014 22.952 6.658 21.966 5.698 23.328 5.5 23.937 4.267"/><polygon fill="#fbd520" points="23.937 4.308 24.533 5.517 25.868 5.711 24.902 6.653 25.13 7.982 23.937 7.354 22.743 7.982 22.971 6.653 22.005 5.711 23.34 5.517 23.937 4.308"/><polygon fill="#fbd620" points="23.937 4.349 24.522 5.534 25.83 5.724 24.883 6.647 25.107 7.95 23.937 7.335 22.766 7.95 22.99 6.647 22.043 5.724 23.351 5.534 23.937 4.349"/><polygon fill="#fbd820" points="23.937 4.39 24.51 5.551 25.791 5.737 24.864 6.641 25.083 7.918 23.937 7.315 22.79 7.918 23.009 6.641 22.082 5.737 23.363 5.551 23.937 4.39"/><polygon fill="#fbda20" points="23.937 4.431 24.498 5.568 25.753 5.75 24.845 6.636 25.059 7.886 23.937 7.296 22.814 7.886 23.028 6.636 22.12 5.75 23.375 5.568 23.937 4.431"/><polygon fill="#fbdb20" points="23.937 4.472 24.486 5.585 25.715 5.763 24.826 6.63 25.035 7.854 23.937 7.276 22.838 7.854 23.048 6.63 22.158 5.763 23.387 5.585 23.937 4.472"/><polygon fill="#fbdd20" points="23.937 4.512 24.474 5.602 25.676 5.776 24.806 6.624 25.012 7.821 23.937 7.256 22.861 7.821 23.067 6.624 22.197 5.776 23.399 5.602 23.937 4.512"/><polygon fill="#fbde20" points="23.937 4.553 24.462 5.619 25.638 5.789 24.787 6.619 24.988 7.789 23.937 7.237 22.885 7.789 23.086 6.619 22.235 5.789 23.411 5.619 23.937 4.553"/><polygon fill="#fbe021" points="23.937 4.594 24.45 5.636 25.599 5.802 24.768 6.613 24.964 7.757 23.937 7.217 22.909 7.757 23.105 6.613 22.274 5.802 23.423 5.636 23.937 4.594"/><polygon fill="#fbe121" points="23.937 4.635 24.439 5.652 25.561 5.815 24.749 6.607 24.94 7.725 23.937 7.197 22.933 7.725 23.124 6.607 22.312 5.815 23.435 5.652 23.937 4.635"/><polygon fill="#fbe321" points="23.937 4.676 24.427 5.669 25.523 5.829 24.73 6.602 24.917 7.693 23.937 7.178 22.956 7.693 23.143 6.602 22.35 5.829 23.446 5.669 23.937 4.676"/><polygon fill="#fbe521" points="23.937 4.717 24.415 5.686 25.484 5.842 24.71 6.596 24.893 7.661 23.937 7.158 22.98 7.661 23.163 6.596 22.389 5.842 23.458 5.686 23.937 4.717"/><polygon fill="#fce621" points="23.937 4.758 24.403 5.703 25.446 5.855 24.691 6.59 24.869 7.629 23.937 7.138 23.004 7.629 23.182 6.59 22.427 5.855 23.47 5.703 23.937 4.758"/><polygon fill="#fce821" points="23.937 4.799 24.391 5.72 25.407 5.868 24.672 6.584 24.846 7.597 23.937 7.119 23.027 7.597 23.201 6.584 22.466 5.868 23.482 5.72 23.937 4.799"/><polygon fill="#fce921" points="23.937 4.84 24.379 5.737 25.369 5.881 24.653 6.579 24.822 7.565 23.937 7.099 23.051 7.565 23.22 6.579 22.504 5.881 23.494 5.737 23.937 4.84"/><polygon fill="#fceb21" points="23.937 4.881 24.367 5.754 25.331 5.894 24.634 6.573 24.798 7.532 23.937 7.079 23.075 7.532 23.239 6.573 22.542 5.894 23.506 5.754 23.937 4.881"/><polygon fill="#fcec21" points="23.937 4.922 24.355 5.771 25.292 5.907 24.614 6.567 24.774 7.5 23.937 7.06 23.099 7.5 23.259 6.567 22.581 5.907 23.518 5.771 23.937 4.922"/><polygon fill="#fcee21" points="23.937 4.963 24.344 5.787 25.254 5.92 24.595 6.562 24.751 7.468 23.937 7.04 23.122 7.468 23.278 6.562 22.619 5.92 23.529 5.787 23.937 4.963"/><path fill="url(#O9nQ7kWwxZXfPD8rxIQwbb)" d="M19.308,14.794a.25.25,0,0,1-.014-.5,9.228,9.228,0,0,0,4.553-1.47,9.037,9.037,0,0,0,2.225-2.075.25.25,0,1,1,.4.3,9.52,9.52,0,0,1-2.349,2.189,9.717,9.717,0,0,1-4.8,1.551Z"/><path fill="url(#O9nQ7kWwxZXfPD8rxIQwbj)" d="M16.867,23.933a.25.25,0,0,1-.031-.5,17.861,17.861,0,0,0,11.878-6.773.249.249,0,1,1,.394.306A18.341,18.341,0,0,1,16.9,23.931Z"/><path fill="url(#O9nQ7kWwxZXfPD8rxIQwbk)" d="M13.773,32.568a.25.25,0,0,1,0-.5,26.106,26.106,0,0,0,11.044-2.66,25.73,25.73,0,0,0,6.444-4.535.25.25,0,0,1,.346.36,26.225,26.225,0,0,1-6.569,4.623,26.6,26.6,0,0,1-11.256,2.712Z"/><circle cx="17.916" cy="32.93" r="1.049" fill="url(#O9nQ7kWwxZXfPD8rxIQwbc)"/><circle cx="22.602" cy="31.733" r="1.049" fill="url(#O9nQ7kWwxZXfPD8rxIQwbl)"/><circle cx="16.562" cy="24.567" r="1.049" fill="url(#O9nQ7kWwxZXfPD8rxIQwbm)"/><circle cx="20.614" cy="23.645" r="1.049" fill="url(#O9nQ7kWwxZXfPD8rxIQwbn)"/><circle cx="24.378" cy="22.151" r="1.049" fill="url(#O9nQ7kWwxZXfPD8rxIQwbo)"/><circle cx="27.36" cy="20.027" r="1.049" fill="url(#O9nQ7kWwxZXfPD8rxIQwbp)"/><circle cx="29.658" cy="17.658" r="1.049" fill="url(#O9nQ7kWwxZXfPD8rxIQwbq)"/><path fill="url(#O9nQ7kWwxZXfPD8rxIQwbr)" d="M21.313,37.526a.25.25,0,0,1-.013-.5A17.85,17.85,0,0,0,33.646,31.15a.25.25,0,0,1,.371.335,18.35,18.35,0,0,1-12.692,6.04Z"/><circle cx="21.235" cy="38.322" r="1.049" fill="url(#O9nQ7kWwxZXfPD8rxIQwbs)"/><circle cx="25.322" cy="37.573" r="1.049" fill="url(#O9nQ7kWwxZXfPD8rxIQwbt)"/><circle cx="29.147" cy="36.24" r="1.049" fill="url(#O9nQ7kWwxZXfPD8rxIQwbu)"/><circle cx="32.216" cy="34.245" r="1.049" fill="url(#O9nQ7kWwxZXfPD8rxIQwbv)"/><circle cx="34.613" cy="31.977" r="1.049" fill="url(#O9nQ7kWwxZXfPD8rxIQwbw)"/><circle cx="19.308" cy="15.592" r="1.049" fill="url(#O9nQ7kWwxZXfPD8rxIQwbx)"/><circle cx="23.341" cy="14.594" r="1.049" fill="url(#O9nQ7kWwxZXfPD8rxIQwby)"/><circle cx="26.701" cy="11.949" r="1.049" fill="url(#O9nQ7kWwxZXfPD8rxIQwbz)"/><circle cx="27.208" cy="29.735" r="1.049" fill="url(#O9nQ7kWwxZXfPD8rxIQwbA)"/><circle cx="30.595" cy="27.164" r="1.049" fill="url(#O9nQ7kWwxZXfPD8rxIQwbB)"/><circle cx="13.581" cy="33.367" r="1.049" fill="url(#O9nQ7kWwxZXfPD8rxIQwbC)"/></svg>